<svg xmlns="http://www.w3.org/2000/svg" viewBox="0 0 1200 1400" font-family="Segoe UI, Arial, sans-serif">
  <defs>
    <filter id="s"><feDropShadow dx="1" dy="1" stdDeviation="2" flood-opacity="0.12"/></filter>
    <pattern id="grid" width="2.54" height="2.54" patternUnits="userSpaceOnUse"><circle cx="1.27" cy="1.27" r="0.25" fill="#1a5c1a" opacity="0.3"/></pattern>
    <pattern id="gridS" width="1.27" height="1.27" patternUnits="userSpaceOnUse"><circle cx="0.635" cy="0.635" r="0.15" fill="#1a5c1a" opacity="0.2"/></pattern>
    <g id="pad"><circle r="2.2" fill="#b87333" stroke="#8b5e1a" stroke-width="0.4"/><circle r="0.9" fill="#0d5016"/></g>
    <g id="padL"><circle r="3" fill="#b87333" stroke="#8b5e1a" stroke-width="0.5"/><circle r="1.2" fill="#0d5016"/></g>
    <g id="smd"><rect x="-2.5" y="-1" width="5" height="2" rx="0.3" fill="#c89632" stroke="#a07828" stroke-width="0.3"/><rect x="-2.5" y="-1" width="1.2" height="2" rx="0.2" fill="#b87333"/><rect x="1.3" y="-1" width="1.2" height="2" rx="0.2" fill="#b87333"/></g>
  </defs>

  <rect width="1200" height="1400" fill="#f8fafc" rx="10"/>
  <rect width="1200" height="55" fill="#0f172a" rx="10"/>
  <rect y="43" width="1200" height="12" fill="#0f172a"/>
  <text x="600" y="24" text-anchor="middle" fill="white" font-size="18" font-weight="bold">PCB Layouts Complets — Through-Hole (Simple Face) + CMS Mini (Double Face)</text>
  <text x="600" y="44" text-anchor="middle" fill="#94a3b8" font-size="10">TSAKITSAKY ENERGY v1.0 | 2 versions comparées | Circuit imprimé avec pistes cuivre</text>

  <!-- ================================================================
       SECTION A : PCB THROUGH-HOLE SIMPLE FACE (100×80mm)
       ================================================================ -->
  <text x="300" y="82" text-anchor="middle" fill="#dc2626" font-size="16" font-weight="bold">A. VERSION THROUGH-HOLE — Simple Face — 100 × 80 mm</text>

  <g transform="translate(30, 95)">
    <!-- PCB board -->
    <rect width="540" height="420" rx="5" fill="#0d6618" stroke="#094d12" stroke-width="3"/>
    <rect width="540" height="420" rx="5" fill="url(#grid)" opacity="0.4"/>

    <!-- Mounting holes -->
    <circle cx="16" cy="16" r="5" fill="#0d5016" stroke="#b87333" stroke-width="1.2"/>
    <circle cx="524" cy="16" r="5" fill="#0d5016" stroke="#b87333" stroke-width="1.2"/>
    <circle cx="16" cy="404" r="5" fill="#0d5016" stroke="#b87333" stroke-width="1.2"/>
    <circle cx="524" cy="404" r="5" fill="#0d5016" stroke="#b87333" stroke-width="1.2"/>
    <text x="270" y="16" text-anchor="middle" fill="#7dda7d" font-size="6" font-weight="bold">TSAKITSAKY ENERGY v1.0 — THROUGH-HOLE</text>

    <!-- U1: STM32F030 DIP-20 + Socket -->
    <rect x="185" y="130" width="80" height="120" rx="3" fill="#1a1a1a" stroke="#444" stroke-width="1.5"/>
    <circle cx="230" cy="130" r="5" fill="#1a1a1a" stroke="#444" stroke-width="1"/>
    <text x="225" y="180" text-anchor="middle" fill="#aaa" font-size="7">STM32F030</text>
    <text x="225" y="192" text-anchor="middle" fill="#888" font-size="5.5">DIP-20 + Socket</text>
    <circle cx="195" cy="140" r="1.5" fill="#ff0"/>
    <!-- Pins left (10) -->
    <g><use href="#pad" x="190" y="145"/><use href="#pad" x="190" y="157"/><use href="#pad" x="190" y="169"/><use href="#pad" x="190" y="181"/><use href="#pad" x="190" y="193"/><use href="#pad" x="190" y="205"/><use href="#pad" x="190" y="217"/><use href="#pad" x="190" y="229"/><use href="#pad" x="190" y="241"/></g>
    <!-- Pins right (10) -->
    <g><use href="#pad" x="260" y="145"/><use href="#pad" x="260" y="157"/><use href="#pad" x="260" y="169"/><use href="#pad" x="260" y="181"/><use href="#pad" x="260" y="193"/><use href="#pad" x="260" y="205"/><use href="#pad" x="260" y="217"/><use href="#pad" x="260" y="229"/><use href="#pad" x="260" y="241"/></g>
    <text x="225" y="125" text-anchor="middle" fill="#7dda7d" font-size="6" font-weight="bold">U1</text>

    <!-- Y1: Crystal HC-49S -->
    <rect x="148" y="160" width="14" height="24" rx="6" fill="#c0c0c0" stroke="#888" stroke-width="1"/>
    <text x="155" y="175" text-anchor="middle" fill="#333" font-size="4.5">8M</text>
    <use href="#pad" x="155" y="152"/>
    <use href="#pad" x="155" y="190"/>
    <text x="155" y="146" text-anchor="middle" fill="#7dda7d" font-size="4">Y1</text>

    <!-- U2: AMS1117 TO-223 -->
    <rect x="400" y="45" width="45" height="28" rx="2" fill="#1a1a1a" stroke="#555" stroke-width="1.5"/>
    <rect x="402" y="35" width="41" height="10" fill="#888" rx="1"/>
    <text x="422" y="60" text-anchor="middle" fill="#aaa" font-size="5">AMS1117</text>
    <use href="#pad" x="408" y="80"/><use href="#pad" x="422" y="80"/><use href="#pad" x="436" y="80"/>
    <text x="422" y="30" text-anchor="middle" fill="#7dda7d" font-size="5" font-weight="bold">U2 LDO 3.3V</text>

    <!-- Electrolytic caps -->
    <circle cx="460" cy="60" r="7" fill="#222" stroke="#555" stroke-width="1.2"/>
    <text x="460" y="63" text-anchor="middle" fill="#aaa" font-size="4">100u</text>
    <text x="460" y="48" text-anchor="middle" fill="#7dda7d" font-size="3.5">C3</text>
    <circle cx="375" cy="90" r="9" fill="#222" stroke="#555" stroke-width="1.2"/>
    <text x="375" y="93" text-anchor="middle" fill="#aaa" font-size="4.5">470u</text>
    <text x="375" y="76" text-anchor="middle" fill="#7dda7d" font-size="3.5">C4</text>

    <!-- Resistors axial (with color bands) -->
    <g transform="translate(65, 105)">
      <rect x="-12" y="-3.5" width="24" height="7" rx="2" fill="#c89632"/><rect x="-9" y="-3.5" width="3" height="7" fill="#2563eb"/><rect x="-5" y="-3.5" width="3" height="7" fill="#6b7280"/><rect x="-1" y="-3.5" width="3" height="7" fill="#f59e0b"/>
      <use href="#pad" x="-18" y="0"/><use href="#pad" x="18" y="0"/>
    </g>
    <text x="65" y="95" text-anchor="middle" fill="#7dda7d" font-size="4">R1 68k</text>
    <g transform="translate(65, 128)">
      <rect x="-12" y="-3.5" width="24" height="7" rx="2" fill="#c89632"/><rect x="-9" y="-3.5" width="3" height="7" fill="#92400e"/><rect x="-5" y="-3.5" width="3" height="7" fill="#1a1a1a"/><rect x="-1" y="-3.5" width="3" height="7" fill="#f59e0b"/>
      <use href="#pad" x="-18" y="0"/><use href="#pad" x="18" y="0"/>
    </g>
    <text x="65" y="140" text-anchor="middle" fill="#7dda7d" font-size="4">R2 10k</text>
    <g transform="translate(65, 185)">
      <rect x="-12" y="-3.5" width="24" height="7" rx="2" fill="#c89632"/>
      <use href="#pad" x="-18" y="0"/><use href="#pad" x="18" y="0"/>
    </g>
    <text x="65" y="175" text-anchor="middle" fill="#7dda7d" font-size="4">R3 39k</text>
    <g transform="translate(65, 208)">
      <rect x="-12" y="-3.5" width="24" height="7" rx="2" fill="#c89632"/>
      <use href="#pad" x="-18" y="0"/><use href="#pad" x="18" y="0"/>
    </g>
    <text x="65" y="222" text-anchor="middle" fill="#7dda7d" font-size="4">R4 10k</text>

    <!-- MOSFETs Q1-Q3 TO-220 -->
    <g transform="translate(400, 160)">
      <rect x="-10" y="-5" width="22" height="42" rx="1.5" fill="#333" stroke="#888" stroke-width="1.2"/>
      <rect x="-10" y="-13" width="22" height="8" rx="1" fill="#aaa"/>
      <text x="1" y="15" text-anchor="middle" fill="#ccc" font-size="5">Q1</text>
      <use href="#padL" x="-5" y="45"/><use href="#padL" x="1" y="45"/><use href="#padL" x="7" y="45"/>
    </g>
    <text x="400" y="142" text-anchor="middle" fill="#fbbf24" font-size="4.5" font-weight="bold">Q1 LOAD1</text>
    <g transform="translate(440, 160)">
      <rect x="-10" y="-5" width="22" height="42" rx="1.5" fill="#333" stroke="#888" stroke-width="1.2"/>
      <rect x="-10" y="-13" width="22" height="8" rx="1" fill="#aaa"/>
      <text x="1" y="15" text-anchor="middle" fill="#ccc" font-size="5">Q2</text>
      <use href="#padL" x="-5" y="45"/><use href="#padL" x="1" y="45"/><use href="#padL" x="7" y="45"/>
    </g>
    <text x="440" y="142" text-anchor="middle" fill="#60a5fa" font-size="4.5" font-weight="bold">Q2 LOAD2</text>
    <g transform="translate(480, 160)">
      <rect x="-10" y="-5" width="22" height="42" rx="1.5" fill="#333" stroke="#888" stroke-width="1.2"/>
      <rect x="-10" y="-13" width="22" height="8" rx="1" fill="#aaa"/>
      <text x="1" y="15" text-anchor="middle" fill="#ccc" font-size="5">Q3</text>
      <use href="#padL" x="-5" y="45"/><use href="#padL" x="1" y="45"/><use href="#padL" x="7" y="45"/>
    </g>
    <text x="480" y="142" text-anchor="middle" fill="#f472b6" font-size="4.5" font-weight="bold">Q3 LOAD3</text>

    <!-- Q0 MPPT -->
    <g transform="translate(400, 260)">
      <rect x="-10" y="-5" width="22" height="42" rx="1.5" fill="#333" stroke="#8b5cf6" stroke-width="1.2"/>
      <rect x="-10" y="-13" width="22" height="8" rx="1" fill="#aaa"/>
      <text x="1" y="15" text-anchor="middle" fill="#ccc" font-size="5">Q0</text>
      <use href="#padL" x="-5" y="45"/><use href="#padL" x="1" y="45"/><use href="#padL" x="7" y="45"/>
    </g>
    <text x="400" y="244" text-anchor="middle" fill="#a78bfa" font-size="4.5" font-weight="bold">Q0 MPPT</text>

    <!-- LEDs 5mm -->
    <circle cx="350" cy="330" r="4" fill="#22c55e" stroke="white" stroke-width="0.8"/>
    <circle cx="370" cy="330" r="4" fill="#f59e0b" stroke="white" stroke-width="0.8"/>
    <circle cx="390" cy="330" r="4" fill="#ef4444" stroke="white" stroke-width="0.8"/>
    <text x="370" y="345" text-anchor="middle" fill="#7dda7d" font-size="4">D1-D3 LEDs</text>

    <!-- Connectors -->
    <rect x="30" y="38" width="38" height="16" rx="2" fill="#1a8a2a" stroke="#0d5016" stroke-width="1.5"/>
    <use href="#padL" x="40" y="46"/><use href="#padL" x="58" y="46"/>
    <text x="49" y="32" text-anchor="middle" fill="#fbbf24" font-size="5" font-weight="bold">J1 SOLAR</text>

    <rect x="100" y="38" width="38" height="16" rx="2" fill="#1a8a2a" stroke="#0d5016" stroke-width="1.5"/>
    <use href="#padL" x="110" y="46"/><use href="#padL" x="128" y="46"/>
    <text x="119" y="32" text-anchor="middle" fill="#22c55e" font-size="5" font-weight="bold">J2 BAT</text>

    <rect x="400" y="360" width="38" height="16" rx="2" fill="#1a8a2a" stroke="#0d5016" stroke-width="1.5"/>
    <text x="419" y="354" text-anchor="middle" fill="#fbbf24" font-size="4">J3</text>
    <rect x="445" y="360" width="38" height="16" rx="2" fill="#1a8a2a" stroke="#0d5016" stroke-width="1.5"/>
    <text x="464" y="354" text-anchor="middle" fill="#60a5fa" font-size="4">J4</text>

    <!-- UART + SWD headers -->
    <rect x="300" y="40" width="40" height="10" rx="1" fill="#1a1a1a" stroke="#a78bfa" stroke-width="0.8"/>
    <text x="320" y="35" text-anchor="middle" fill="#a78bfa" font-size="5" font-weight="bold">J6 UART</text>
    <rect x="300" y="65" width="40" height="10" rx="1" fill="#1a1a1a" stroke="#ef4444" stroke-width="0.8"/>
    <text x="320" y="60" text-anchor="middle" fill="#ef4444" font-size="4.5" font-weight="bold">J7 SWD</text>

    <!-- Reset button -->
    <rect x="290" y="270" width="14" height="14" rx="2" fill="#555" stroke="#888" stroke-width="1"/>
    <circle cx="297" cy="277" r="3.5" fill="#888"/>
    <text x="297" y="294" text-anchor="middle" fill="#7dda7d" font-size="4">RESET</text>

    <!-- ==== COPPER TRACES (Bottom layer) ==== -->
    <g stroke="#b87333" fill="none" opacity="0.4" stroke-linecap="round" stroke-linejoin="round">
      <!-- VCC 12V (thick) -->
      <path d="M 49,55 L 49,105 L 49,185" stroke-width="3.5"/>
      <path d="M 119,55 L 119,105" stroke-width="3.5"/>
      <!-- 3.3V from LDO to MCU -->
      <path d="M 422,80 L 422,115 L 300,115 L 300,130 L 260,145" stroke-width="2"/>
      <!-- GND bus -->
      <path d="M 40,55 L 40,400 L 500,400 L 500,55" stroke-width="4" stroke="#1a5c1a" opacity="0.2"/>
      <!-- ADC traces -->
      <path d="M 83,105 L 145,105 L 145,130 L 190,169" stroke-width="1.2" stroke="#f59e0b"/>
      <path d="M 83,128 L 150,128 L 150,185 L 190,181" stroke-width="1.2" stroke="#f59e0b"/>
      <path d="M 83,185 L 190,193" stroke-width="1.2" stroke="#22c55e"/>
      <path d="M 83,208 L 190,205" stroke-width="1.2" stroke="#22c55e"/>
      <!-- GPIO to MOSFETs -->
      <path d="M 190,217 L 140,217 L 140,250 L 395,250 L 395,205" stroke-width="1.2"/>
      <path d="M 190,229 L 135,229 L 135,242 L 435,242 L 435,205" stroke-width="1.2"/>
      <path d="M 190,241 L 130,241 L 130,236 L 475,236 L 475,205" stroke-width="1.2"/>
      <!-- UART traces -->
      <path d="M 260,169 L 290,169 L 290,50 L 300,50" stroke-width="1" stroke="#8b5cf6"/>
      <path d="M 260,181 L 285,181 L 285,55 L 310,55" stroke-width="1" stroke="#8b5cf6"/>
    </g>

    <!-- Dimensions -->
    <line x1="-10" y1="-8" x2="550" y2="-8" stroke="#94a3b8" stroke-width="0.5"/>
    <line x1="-10" y1="-11" x2="-10" y2="-5" stroke="#94a3b8" stroke-width="0.5"/>
    <line x1="550" y1="-11" x2="550" y2="-5" stroke="#94a3b8" stroke-width="0.5"/>
    <text x="270" y="-14" text-anchor="middle" fill="#94a3b8" font-size="7" font-weight="bold">100 mm</text>
    <line x1="-15" y1="0" x2="-15" y2="420" stroke="#94a3b8" stroke-width="0.5"/>
    <line x1="-18" y1="0" x2="-12" y2="0" stroke="#94a3b8" stroke-width="0.5"/>
    <line x1="-18" y1="420" x2="-12" y2="420" stroke="#94a3b8" stroke-width="0.5"/>
    <text x="-25" y="210" text-anchor="middle" fill="#94a3b8" font-size="7" font-weight="bold" transform="rotate(-90,-25,210)">80 mm</text>

    <text x="270" y="414" text-anchor="middle" fill="#094d12" font-size="5">GND PLANE — BOTTOM LAYER</text>
  </g>

  <!-- BOM Through-Hole -->
  <g transform="translate(610, 95)">
    <rect width="560" height="420" rx="8" fill="white" stroke="#e2e8f0" stroke-width="1.5" filter="url(#s)"/>
    <rect width="560" height="26" rx="8" fill="#dc2626"/><rect y="18" width="560" height="8" fill="#dc2626"/>
    <text x="280" y="18" text-anchor="middle" fill="white" font-size="11" font-weight="bold">BOM Through-Hole — 34 composants — $6.55</text>
    <g font-size="8.5" fill="#334155">
      <text x="10" y="42" font-weight="bold">Ref</text><text x="50" y="42" font-weight="bold">Composant</text><text x="280" y="42" font-weight="bold">Package</text><text x="380" y="42" font-weight="bold">Qte</text><text x="420" y="42" font-weight="bold">Prix</text><text x="465" y="42" font-weight="bold">Soudure</text>
      <line x1="5" y1="47" x2="555" y2="47" stroke="#e2e8f0"/>

      <text x="10" y="62">U1</text><text x="50" y="62">STM32F030F4P6 + socket DIP-20</text><text x="280" y="62">DIP-20</text><text x="385" y="62">1</text><text x="420" y="62">$1.50</text><text x="465" y="62" fill="#22c55e">Facile</text>
      <text x="10" y="77">U2</text><text x="50" y="77">AMS1117-3.3 LDO regulateur</text><text x="280" y="77">TO-223</text><text x="385" y="77">1</text><text x="420" y="77">$0.15</text><text x="465" y="77" fill="#22c55e">Facile</text>
      <text x="10" y="92">Y1</text><text x="50" y="92">Cristal quartz 8 MHz</text><text x="280" y="92">HC-49S</text><text x="385" y="92">1</text><text x="420" y="92">$0.20</text><text x="465" y="92" fill="#22c55e">Facile</text>
      <text x="10" y="107">Q0-3</text><text x="50" y="107">IRF540N MOSFET N-ch 55V/17A</text><text x="280" y="107">TO-220</text><text x="385" y="107">4</text><text x="420" y="107">$1.20</text><text x="465" y="107" fill="#22c55e">Facile</text>
      <text x="10" y="127">R1</text><text x="50" y="127">68kΩ ±1% (Bleu-Gris-Orange-Or)</text><text x="280" y="127">Axial ¼W</text><text x="385" y="127">1</text><text x="420" y="127">$0.02</text><text x="465" y="127" fill="#22c55e">Facile</text>
      <text x="10" y="142">R2,4</text><text x="50" y="142">10kΩ ±1% (Marron-Noir-Orange)</text><text x="280" y="142">Axial ¼W</text><text x="385" y="142">2</text><text x="420" y="142">$0.04</text><text x="465" y="142" fill="#22c55e">Facile</text>
      <text x="10" y="157">R3</text><text x="50" y="157">39kΩ ±1% (Orange-Blanc-Orange)</text><text x="280" y="157">Axial ¼W</text><text x="385" y="157">1</text><text x="420" y="157">$0.02</text><text x="465" y="157" fill="#22c55e">Facile</text>
      <text x="10" y="172">R5,6</text><text x="50" y="172">4.7kΩ (I2C pull-up)</text><text x="280" y="172">Axial ¼W</text><text x="385" y="172">2</text><text x="420" y="172">$0.04</text><text x="465" y="172" fill="#22c55e">Facile</text>
      <text x="10" y="187">R7-9</text><text x="50" y="187">330Ω (LED limiter)</text><text x="280" y="187">Axial ¼W</text><text x="385" y="187">3</text><text x="420" y="187">$0.06</text><text x="465" y="187" fill="#22c55e">Facile</text>
      <text x="10" y="207">C1,2</text><text x="50" y="207">22pF ceramique (cristal)</text><text x="280" y="207">Disque</text><text x="385" y="207">2</text><text x="420" y="207">$0.04</text><text x="465" y="207" fill="#22c55e">Facile</text>
      <text x="10" y="222">C5+</text><text x="50" y="222">100nF ceramique (decouplage) ×4</text><text x="280" y="222">Disque</text><text x="385" y="222">4</text><text x="420" y="222">$0.08</text><text x="465" y="222" fill="#22c55e">Facile</text>
      <text x="10" y="237">C3</text><text x="50" y="237">100µF/25V electrolytique</text><text x="280" y="237">Radial</text><text x="385" y="237">1</text><text x="420" y="237">$0.10</text><text x="465" y="237" fill="#22c55e">Facile</text>
      <text x="10" y="252">C4</text><text x="50" y="252">470µF/16V electrolytique</text><text x="280" y="252">Radial</text><text x="385" y="252">1</text><text x="420" y="252">$0.20</text><text x="465" y="252" fill="#22c55e">Facile</text>
      <text x="10" y="272">D1-3</text><text x="50" y="272">LED 5mm V/O/R diffuse</text><text x="280" y="272">5mm TH</text><text x="385" y="272">3</text><text x="420" y="272">$0.15</text><text x="465" y="272" fill="#22c55e">Facile</text>
      <text x="10" y="287">D4</text><text x="50" y="287">TVS bidirectionnel 30V</text><text x="280" y="287">DO-15</text><text x="385" y="287">1</text><text x="420" y="287">$0.25</text><text x="465" y="287" fill="#22c55e">Facile</text>
      <text x="10" y="302">D5</text><text x="50" y="302">Schottky SS54 5A</text><text x="280" y="302">DO-41</text><text x="385" y="302">1</text><text x="420" y="302">$0.15</text><text x="465" y="302" fill="#22c55e">Facile</text>
      <text x="10" y="317">F1</text><text x="50" y="317">Fusible PTC 8A</text><text x="280" y="317">Radial</text><text x="385" y="317">1</text><text x="420" y="317">$0.30</text><text x="465" y="317" fill="#22c55e">Facile</text>
      <text x="10" y="332">SW1</text><text x="50" y="332">Bouton tactile reset 6×6mm</text><text x="280" y="332">TH 4-pin</text><text x="385" y="332">1</text><text x="420" y="332">$0.10</text><text x="465" y="332" fill="#22c55e">Facile</text>
      <text x="10" y="352">J1-5</text><text x="50" y="352">Borniers vis 2-pos 5.08mm</text><text x="280" y="352">TH screw</text><text x="385" y="352">5</text><text x="420" y="352">$0.75</text><text x="465" y="352" fill="#22c55e">Facile</text>
      <text x="10" y="367">J6,7</text><text x="50" y="367">Barrettes males 1×4 2.54mm</text><text x="280" y="367">Header</text><text x="385" y="367">2</text><text x="420" y="367">$0.20</text><text x="465" y="367" fill="#22c55e">Facile</text>
      <text x="10" y="382">PCB</text><text x="50" y="382">FR-4 simple face 100×80mm</text><text x="280" y="382">1.6mm</text><text x="385" y="382">1</text><text x="420" y="382">$0.50</text><text x="465" y="382" fill="#22c55e">—</text>
      <line x1="5" y1="390" x2="555" y2="390" stroke="#1e293b" stroke-width="1.5"/>
      <text x="50" y="408" font-weight="bold" fill="#1e293b" font-size="10">TOTAL</text>
      <text x="380" y="408" font-weight="bold" fill="#1e293b" font-size="10">34</text>
      <text x="420" y="408" font-weight="bold" fill="#dc2626" font-size="11">$6.55</text>
      <text x="465" y="408" fill="#22c55e" font-weight="bold" font-size="9">100% facile</text>
    </g>
  </g>

  <!-- ================================================================
       SECTION B : PCB CMS MINI DOUBLE FACE (50×40mm)
       ================================================================ -->
  <text x="300" y="545" text-anchor="middle" fill="#2563eb" font-size="16" font-weight="bold">B. VERSION CMS MINI — Double Face — 50 × 40 mm</text>

  <g transform="translate(30, 558)">
    <rect width="540" height="420" rx="5" fill="#0d6618" stroke="#094d12" stroke-width="3"/>
    <rect width="540" height="420" rx="5" fill="url(#gridS)" opacity="0.3"/>

    <circle cx="14" cy="14" r="4" fill="#0d5016" stroke="#b87333" stroke-width="1"/>
    <circle cx="526" cy="14" r="4" fill="#0d5016" stroke="#b87333" stroke-width="1"/>
    <circle cx="14" cy="406" r="4" fill="#0d5016" stroke="#b87333" stroke-width="1"/>
    <circle cx="526" cy="406" r="4" fill="#0d5016" stroke="#b87333" stroke-width="1"/>
    <text x="270" y="15" text-anchor="middle" fill="#7dda7d" font-size="5.5" font-weight="bold">TSAKITSAKY ENERGY v1.0 MINI — CMS</text>

    <!-- U1: TSSOP-20 -->
    <rect x="185" y="145" width="44" height="55" rx="2" fill="#1a1a1a" stroke="#444" stroke-width="1"/>
    <circle cx="190" cy="152" r="1.5" fill="#888"/>
    <text x="207" y="170" text-anchor="middle" fill="#aaa" font-size="6">STM32</text>
    <text x="207" y="180" text-anchor="middle" fill="#888" font-size="5">TSSOP-20</text>
    <!-- SMD pads left -->
    <g fill="#b87333"><rect x="179" y="150" width="6" height="1.3"/><rect x="179" y="155" width="6" height="1.3"/><rect x="179" y="160" width="6" height="1.3"/><rect x="179" y="165" width="6" height="1.3"/><rect x="179" y="170" width="6" height="1.3"/><rect x="179" y="175" width="6" height="1.3"/><rect x="179" y="180" width="6" height="1.3"/><rect x="179" y="185" width="6" height="1.3"/><rect x="179" y="190" width="6" height="1.3"/></g>
    <!-- SMD pads right -->
    <g fill="#b87333"><rect x="229" y="150" width="6" height="1.3"/><rect x="229" y="155" width="6" height="1.3"/><rect x="229" y="160" width="6" height="1.3"/><rect x="229" y="165" width="6" height="1.3"/><rect x="229" y="170" width="6" height="1.3"/><rect x="229" y="175" width="6" height="1.3"/><rect x="229" y="180" width="6" height="1.3"/><rect x="229" y="185" width="6" height="1.3"/><rect x="229" y="190" width="6" height="1.3"/></g>
    <text x="207" y="140" text-anchor="middle" fill="#7dda7d" font-size="5" font-weight="bold">U1</text>

    <!-- Crystal SMD 3.2×2.5mm -->
    <rect x="146" y="162" width="12" height="8" rx="1" fill="#c0c0c0" stroke="#888" stroke-width="0.6"/>
    <text x="152" y="168" text-anchor="middle" fill="#333" font-size="3.5">8M</text>
    <text x="152" y="156" text-anchor="middle" fill="#7dda7d" font-size="3.5">Y1</text>

    <!-- AMS1117 SOT-223 -->
    <rect x="400" y="60" width="35" height="18" rx="1.5" fill="#1a1a1a" stroke="#555" stroke-width="1"/>
    <rect x="400" y="50" width="35" height="10" fill="#888" rx="1"/>
    <text x="417" y="72" text-anchor="middle" fill="#aaa" font-size="4.5">1117</text>
    <text x="417" y="46" text-anchor="middle" fill="#7dda7d" font-size="4" font-weight="bold">U2</text>

    <!-- SMD Resistors 0805 -->
    <use href="#smd" x="70" y="130"/><text x="70" y="124" text-anchor="middle" fill="#fbbf24" font-size="3.5">R1 68k</text>
    <use href="#smd" x="70" y="145"/><text x="70" y="152" text-anchor="middle" fill="#fbbf24" font-size="3.5">R2 10k</text>
    <use href="#smd" x="70" y="195"/><text x="70" y="189" text-anchor="middle" fill="#22c55e" font-size="3.5">R3 39k</text>
    <use href="#smd" x="70" y="210"/><text x="70" y="218" text-anchor="middle" fill="#22c55e" font-size="3.5">R4 10k</text>
    <use href="#smd" x="110" y="260"/><text x="110" y="254" text-anchor="middle" fill="#7dda7d" font-size="3">R5 4k7</text>
    <use href="#smd" x="110" y="275"/><text x="110" y="283" text-anchor="middle" fill="#7dda7d" font-size="3">R6 4k7</text>
    <use href="#smd" x="300" y="320"/><text x="284" y="323" text-anchor="end" fill="#7dda7d" font-size="3">R7</text>
    <use href="#smd" x="300" y="340"/><text x="284" y="343" text-anchor="end" fill="#7dda7d" font-size="3">R8</text>
    <use href="#smd" x="300" y="360"/><text x="284" y="363" text-anchor="end" fill="#7dda7d" font-size="3">R9</text>

    <!-- SMD caps -->
    <use href="#smd" x="440" y="90"/><text x="440" y="98" text-anchor="middle" fill="#7dda7d" font-size="3">C3 10u</text>
    <use href="#smd" x="395" y="90"/><text x="395" y="98" text-anchor="middle" fill="#7dda7d" font-size="3">C4 22u</text>
    <use href="#smd" x="250" y="140"/><text x="250" y="136" text-anchor="middle" fill="#7dda7d" font-size="3">C5 100n</text>

    <!-- SMD LEDs -->
    <rect x="318" y="318" width="5" height="2" rx="0.5" fill="#22c55e" stroke="#15803d" stroke-width="0.4"/>
    <rect x="318" y="338" width="5" height="2" rx="0.5" fill="#f59e0b" stroke="#d97706" stroke-width="0.4"/>
    <rect x="318" y="358" width="5" height="2" rx="0.5" fill="#ef4444" stroke="#dc2626" stroke-width="0.4"/>

    <!-- MOSFETs DPAK -->
    <g transform="translate(400, 180)">
      <rect x="-10" y="-8" width="22" height="22" rx="1.5" fill="#333" stroke="#888" stroke-width="1"/>
      <rect x="-10" y="-15" width="22" height="7" fill="#888" rx="0.5"/>
      <text x="1" y="5" text-anchor="middle" fill="#ccc" font-size="4.5">Q1</text>
    </g>
    <text x="401" y="160" text-anchor="middle" fill="#fbbf24" font-size="4" font-weight="bold">Q1</text>
    <g transform="translate(440, 180)">
      <rect x="-10" y="-8" width="22" height="22" rx="1.5" fill="#333" stroke="#888" stroke-width="1"/>
      <rect x="-10" y="-15" width="22" height="7" fill="#888" rx="0.5"/>
      <text x="1" y="5" text-anchor="middle" fill="#ccc" font-size="4.5">Q2</text>
    </g>
    <text x="441" y="160" text-anchor="middle" fill="#60a5fa" font-size="4" font-weight="bold">Q2</text>
    <g transform="translate(480, 180)">
      <rect x="-10" y="-8" width="22" height="22" rx="1.5" fill="#333" stroke="#888" stroke-width="1"/>
      <rect x="-10" y="-15" width="22" height="7" fill="#888" rx="0.5"/>
      <text x="1" y="5" text-anchor="middle" fill="#ccc" font-size="4.5">Q3</text>
    </g>
    <text x="481" y="160" text-anchor="middle" fill="#f472b6" font-size="4" font-weight="bold">Q3</text>

    <!-- Q0 MPPT DPAK -->
    <g transform="translate(400, 260)">
      <rect x="-10" y="-8" width="22" height="22" rx="1.5" fill="#333" stroke="#8b5cf6" stroke-width="1"/>
      <rect x="-10" y="-15" width="22" height="7" fill="#888" rx="0.5"/>
      <text x="1" y="5" text-anchor="middle" fill="#ccc" font-size="4.5">Q0</text>
    </g>
    <text x="401" y="240" text-anchor="middle" fill="#a78bfa" font-size="4" font-weight="bold">Q0 MPPT</text>

    <!-- Connectors (TH in CMS board) -->
    <rect x="30" y="48" width="35" height="14" rx="1.5" fill="#1a8a2a" stroke="#0d5016" stroke-width="1.5"/>
    <text x="47" y="40" text-anchor="middle" fill="#fbbf24" font-size="4.5" font-weight="bold">J1 SOLAR</text>
    <rect x="100" y="48" width="35" height="14" rx="1.5" fill="#1a8a2a" stroke="#0d5016" stroke-width="1.5"/>
    <text x="117" y="40" text-anchor="middle" fill="#22c55e" font-size="4.5" font-weight="bold">J2 BAT</text>
    <rect x="260" y="48" width="32" height="9" rx="1" fill="#1a1a1a" stroke="#a78bfa" stroke-width="0.8"/>
    <text x="276" y="43" text-anchor="middle" fill="#a78bfa" font-size="4" font-weight="bold">J6 UART</text>
    <rect x="310" y="48" width="32" height="9" rx="1" fill="#1a1a1a" stroke="#ef4444" stroke-width="0.8"/>
    <text x="326" y="43" text-anchor="middle" fill="#ef4444" font-size="4" font-weight="bold">J7 SWD</text>

    <!-- GND vias -->
    <g fill="#b87333" opacity="0.3">
      <circle cx="270" cy="390" r="0.8"/><circle cx="276" cy="390" r="0.8"/><circle cx="282" cy="390" r="0.8"/><circle cx="288" cy="390" r="0.8"/>
      <circle cx="270" cy="396" r="0.8"/><circle cx="276" cy="396" r="0.8"/><circle cx="282" cy="396" r="0.8"/><circle cx="288" cy="396" r="0.8"/>
    </g>
    <text x="279" y="408" text-anchor="middle" fill="#094d12" font-size="4">GND via array — GND plane bottom</text>

    <!-- CMS copper traces (thinner, denser) -->
    <g stroke="#b87333" fill="none" opacity="0.35" stroke-linecap="round">
      <path d="M 83,130 L 150,130 L 170,155 L 179,160" stroke-width="0.8" stroke="#f59e0b"/>
      <path d="M 83,145 L 155,145 L 170,165 L 179,165" stroke-width="0.8" stroke="#f59e0b"/>
      <path d="M 83,195 L 165,195 L 179,175" stroke-width="0.8" stroke="#22c55e"/>
      <path d="M 83,210 L 160,210 L 179,180" stroke-width="0.8" stroke="#22c55e"/>
      <path d="M 235,170 L 260,170 L 260,55 L 265,55" stroke-width="0.7" stroke="#8b5cf6"/>
      <path d="M 235,175 L 255,175 L 255,58 L 270,58" stroke-width="0.7" stroke="#8b5cf6"/>
      <path d="M 179,185 L 140,185 L 140,240 L 395,240 L 395,202" stroke-width="0.8"/>
      <path d="M 179,190 L 135,190 L 135,234 L 435,234 L 435,202" stroke-width="0.8"/>
      <path d="M 417,78 L 417,100 L 260,100 L 260,140 L 235,155" stroke-width="1" stroke="#dc2626"/>
    </g>

    <!-- Dimensions -->
    <line x1="-10" y1="-8" x2="550" y2="-8" stroke="#94a3b8" stroke-width="0.5"/>
    <line x1="-10" y1="-11" x2="-10" y2="-5" stroke="#94a3b8" stroke-width="0.5"/>
    <line x1="550" y1="-11" x2="550" y2="-5" stroke="#94a3b8" stroke-width="0.5"/>
    <text x="270" y="-14" text-anchor="middle" fill="#94a3b8" font-size="7" font-weight="bold">50 mm (echelle ×2 pour lisibilite)</text>
    <line x1="-15" y1="0" x2="-15" y2="420" stroke="#94a3b8" stroke-width="0.5"/>
    <line x1="-18" y1="0" x2="-12" y2="0" stroke="#94a3b8" stroke-width="0.5"/>
    <line x1="-18" y1="420" x2="-12" y2="420" stroke="#94a3b8" stroke-width="0.5"/>
    <text x="-25" y="210" text-anchor="middle" fill="#94a3b8" font-size="7" font-weight="bold" transform="rotate(-90,-25,210)">40 mm</text>
  </g>

  <!-- Comparatif -->
  <g transform="translate(610, 558)">
    <rect width="560" height="420" rx="8" fill="white" stroke="#e2e8f0" stroke-width="1.5" filter="url(#s)"/>
    <rect width="560" height="26" rx="8" fill="#2563eb"/><rect y="18" width="560" height="8" fill="#2563eb"/>
    <text x="280" y="18" text-anchor="middle" fill="white" font-size="11" font-weight="bold">Comparatif Through-Hole vs CMS Mini</text>
    <g font-size="9.5">
      <text x="15" y="46" fill="#1e293b" font-weight="bold">Critère</text>
      <text x="220" y="46" fill="#dc2626" font-weight="bold">Through-Hole (A)</text>
      <text x="415" y="46" fill="#2563eb" font-weight="bold">CMS Mini (B)</text>
      <line x1="10" y1="52" x2="550" y2="52" stroke="#e2e8f0"/>

      <g fill="#334155">
        <text x="15" y="70">Dimensions PCB</text><text x="220" y="70">100 × 80 mm</text><text x="415" y="70" fill="#2563eb" font-weight="bold">50 × 40 mm (-75%)</text>
        <text x="15" y="90">Couches</text><text x="220" y="90" fill="#dc2626" font-weight="bold">Simple face</text><text x="415" y="90">Double face</text>
        <text x="15" y="110">Coût PCB (lot 10)</text><text x="220" y="110" fill="#dc2626" font-weight="bold">$0.50</text><text x="415" y="110">$1.50</text>
        <text x="15" y="130">Coût composants</text><text x="220" y="130">$6.05</text><text x="415" y="130" fill="#2563eb" font-weight="bold">$5.20 (-14%)</text>
        <text x="15" y="150">Coût total</text><text x="220" y="150" font-weight="bold">$6.55</text><text x="415" y="150" font-weight="bold">$6.70</text>
        <text x="15" y="175">Soudure</text><text x="220" y="175" fill="#22c55e" font-weight="bold">Fer basique ✓</text><text x="415" y="175" fill="#f59e0b">Station CMS/air chaud</text>
        <text x="15" y="195">Réparabilité terrain</text><text x="220" y="195" fill="#22c55e" font-weight="bold">Excellente ✓</text><text x="415" y="195" fill="#ef4444">Difficile</text>
        <text x="15" y="215">Fabrication locale</text><text x="220" y="215" fill="#22c55e" font-weight="bold">Gravure chimique ✓</text><text x="415" y="215" fill="#f59e0b">Import JLCPCB</text>
        <text x="15" y="235">Volume recommandé</text><text x="220" y="235">&lt; 500 unités</text><text x="415" y="235" fill="#2563eb" font-weight="bold">&gt; 500 unités ✓</text>
        <text x="15" y="255">Boîtier nécessaire</text><text x="220" y="255">120×80×40mm</text><text x="415" y="255" fill="#2563eb" font-weight="bold">80×50×30mm</text>
        <text x="15" y="275">MCU package</text><text x="220" y="275">DIP-20 + socket</text><text x="415" y="275">TSSOP-20</text>
        <text x="15" y="295">MOSFET package</text><text x="220" y="295">TO-220 (heatsink)</text><text x="415" y="295">DPAK (SMD)</text>
        <text x="15" y="315">Passifs</text><text x="220" y="315">Axial/Radial TH</text><text x="415" y="315">0805 / 0603 SMD</text>
      </g>
      <line x1="10" y1="328" x2="550" y2="328" stroke="#1e293b" stroke-width="1.5"/>

      <text x="15" y="350" fill="#1e293b" font-size="11" font-weight="bold">Recommandation :</text>
    </g>

    <!-- Recommendation boxes -->
    <rect x="15" y="358" width="255" height="50" rx="6" fill="#fef2f2" stroke="#dc2626" stroke-width="1.5"/>
    <text x="142" y="378" text-anchor="middle" fill="#991b1b" font-size="10" font-weight="bold">Phase 1 (Prototype) → TH</text>
    <text x="142" y="395" text-anchor="middle" fill="#7f1d1d" font-size="8">Soudure facile, reparable, local</text>

    <rect x="285" y="358" width="260" height="50" rx="6" fill="#eff6ff" stroke="#2563eb" stroke-width="1.5"/>
    <text x="415" y="378" text-anchor="middle" fill="#1e40af" font-size="10" font-weight="bold">Phase 2+ (Production) → CMS</text>
    <text x="415" y="395" text-anchor="middle" fill="#1e3a5f" font-size="8">Compact, assemblage JLCPCB SMT</text>
  </g>

  <!-- Footer -->
  <rect y="1350" width="1200" height="50" fill="#0f172a"/>
  <text x="600" y="1370" text-anchor="middle" fill="#94a3b8" font-size="9">TSAKITSAKY ENERGY v1.0 | PCB Through-Hole 100×80mm ($6.55) + PCB CMS Mini 50×40mm ($6.70) | Circuit imprimé avec pistes cuivre</text>
  <text x="600" y="1388" text-anchor="middle" fill="#64748b" font-size="8">(c) 2026 S. RAZAFINDRAKOTO | Fabrication: gravure locale (TH) ou JLCPCB Assembly (CMS) | Keil MDK Cortex-M0</text>
</svg>
