<svg xmlns="http://www.w3.org/2000/svg" viewBox="0 0 1100 850" font-family="Segoe UI, Arial, sans-serif">
  <defs>
    <filter id="s"><feDropShadow dx="3" dy="3" stdDeviation="4" flood-opacity="0.18"/></filter>
    <filter id="gl"><feGaussianBlur stdDeviation="1.5" result="b"/><feMerge><feMergeNode in="b"/><feMergeNode in="SourceGraphic"/></feMerge></filter>
    <linearGradient id="sky" x1="0%" y1="0%" x2="0%" y2="100%"><stop offset="0%" stop-color="#7dd3fc"/><stop offset="100%" stop-color="#bae6fd"/></linearGradient>
    <linearGradient id="ground" x1="0%" y1="0%" x2="0%" y2="100%"><stop offset="0%" stop-color="#86efac"/><stop offset="100%" stop-color="#4ade80"/></linearGradient>
    <linearGradient id="panel_face" x1="0%" y1="0%" x2="100%" y2="100%"><stop offset="0%" stop-color="#1e3a5f"/><stop offset="100%" stop-color="#1e40af"/></linearGradient>
    <linearGradient id="panel_glass" x1="0%" y1="0%" x2="100%" y2="100%"><stop offset="0%" stop-color="#2563eb" stop-opacity="0.7"/><stop offset="100%" stop-color="#3b82f6" stop-opacity="0.5"/></linearGradient>
    <linearGradient id="box_top" x1="0%" y1="0%" x2="100%" y2="100%"><stop offset="0%" stop-color="#cbd5e1"/><stop offset="100%" stop-color="#94a3b8"/></linearGradient>
    <linearGradient id="box_front" x1="0%" y1="0%" x2="0%" y2="100%"><stop offset="0%" stop-color="#94a3b8"/><stop offset="100%" stop-color="#64748b"/></linearGradient>
    <linearGradient id="box_side" x1="0%" y1="0%" x2="100%" y2="100%"><stop offset="0%" stop-color="#475569"/><stop offset="100%" stop-color="#334155"/></linearGradient>
    <linearGradient id="bat_top" x1="0%" y1="0%" x2="100%" y2="0%"><stop offset="0%" stop-color="#22c55e"/><stop offset="100%" stop-color="#16a34a"/></linearGradient>
    <linearGradient id="bat_front" x1="0%" y1="0%" x2="0%" y2="100%"><stop offset="0%" stop-color="#15803d"/><stop offset="100%" stop-color="#166534"/></linearGradient>
    <linearGradient id="bat_side" x1="0%" y1="0%" x2="0%" y2="100%"><stop offset="0%" stop-color="#16a34a"/><stop offset="100%" stop-color="#14532d"/></linearGradient>
    <linearGradient id="pcb_g" x1="0%" y1="0%" x2="100%" y2="100%"><stop offset="0%" stop-color="#15803d"/><stop offset="100%" stop-color="#0d5016"/></linearGradient>
    <linearGradient id="bulb" x1="0%" y1="0%" x2="0%" y2="100%"><stop offset="0%" stop-color="#fef9c3"/><stop offset="60%" stop-color="#fde68a"/><stop offset="100%" stop-color="#fbbf24"/></linearGradient>
    <radialGradient id="glow_y"><stop offset="0%" stop-color="#fbbf24" stop-opacity="0.4"/><stop offset="100%" stop-color="#fbbf24" stop-opacity="0"/></radialGradient>
    <radialGradient id="sun_g"><stop offset="0%" stop-color="#fef08a"/><stop offset="50%" stop-color="#fbbf24"/><stop offset="100%" stop-color="#f59e0b"/></radialGradient>
  </defs>

  <!-- ===== SCENE BACKGROUND ===== -->
  <rect width="1100" height="850" rx="12" fill="url(#sky)"/>
  <!-- Ground -->
  <ellipse cx="550" cy="780" rx="600" ry="120" fill="url(#ground)" opacity="0.6"/>
  <ellipse cx="550" cy="790" rx="550" ry="80" fill="#4ade80" opacity="0.3"/>

  <!-- ===== SUN ===== -->
  <circle cx="950" cy="100" r="55" fill="url(#sun_g)" filter="url(#gl)"/>
  <!-- Sun rays -->
  <g stroke="#fbbf24" stroke-width="2.5" opacity="0.5">
    <line x1="950" y1="30" x2="950" y2="10"/>
    <line x1="950" y1="170" x2="950" y2="190"/>
    <line x1="880" y1="100" x2="860" y2="100"/>
    <line x1="1020" y1="100" x2="1040" y2="100"/>
    <line x1="900" y1="50" x2="885" y2="35"/>
    <line x1="1000" y1="50" x2="1015" y2="35"/>
    <line x1="900" y1="150" x2="885" y2="165"/>
    <line x1="1000" y1="150" x2="1015" y2="165"/>
  </g>
  <!-- Sun rays towards panel (light beams) -->
  <g stroke="#fde68a" stroke-width="1" opacity="0.2">
    <line x1="900" y1="130" x2="450" y2="250"/>
    <line x1="910" y1="140" x2="350" y2="260"/>
    <line x1="895" y1="145" x2="300" y2="275"/>
    <line x1="920" y1="120" x2="500" y2="240"/>
  </g>

  <!-- ===== CLOUDS ===== -->
  <g opacity="0.6">
    <ellipse cx="200" cy="80" rx="60" ry="20" fill="white"/>
    <ellipse cx="170" cy="75" rx="40" ry="18" fill="white"/>
    <ellipse cx="235" cy="78" rx="35" ry="15" fill="white"/>
    <ellipse cx="700" cy="60" rx="50" ry="16" fill="white"/>
    <ellipse cx="675" cy="55" rx="35" ry="14" fill="white"/>
    <ellipse cx="730" cy="58" rx="30" ry="12" fill="white"/>
  </g>

  <!-- ===== MOUNTING POLE ===== -->
  <rect x="170" y="280" width="12" height="480" rx="2" fill="#78716c" stroke="#57534e" stroke-width="1.5"/>
  <rect x="165" y="275" width="22" height="8" rx="2" fill="#a8a29e" stroke="#78716c" stroke-width="1"/>
  <!-- Pole bracket -->
  <polygon points="155,278 197,278 185,295 167,295" fill="#78716c" stroke="#57534e" stroke-width="1"/>

  <!-- ===== SOLAR PANEL (3D isometric) ===== -->
  <g filter="url(#s)" transform="translate(80, 200)">
    <!-- Panel back frame -->
    <polygon points="20,60 350,20 420,50 90,90" fill="#334155" stroke="#1e293b" stroke-width="2"/>
    <!-- Panel frame (aluminum) -->
    <polygon points="15,55 345,15 415,45 85,85" fill="url(#panel_face)" stroke="#1e3a5f" stroke-width="2.5"/>
    <!-- Glass surface -->
    <polygon points="25,57 335,20 405,47 95,82" fill="url(#panel_glass)"/>
    <!-- Solar cell grid lines (horizontal) -->
    <g stroke="#1e40af" stroke-width="0.6" opacity="0.4">
      <line x1="45" y1="63" x2="375" y2="28"/>
      <line x1="55" y1="67" x2="385" y2="32"/>
      <line x1="65" y1="71" x2="395" y2="36"/>
      <line x1="75" y1="75" x2="400" y2="42"/>
    </g>
    <!-- Solar cell grid lines (vertical) -->
    <g stroke="#1e40af" stroke-width="0.5" opacity="0.3">
      <line x1="85" y1="50" x2="105" y2="80"/>
      <line x1="145" y1="42" x2="165" y2="72"/>
      <line x1="205" y1="35" x2="225" y2="65"/>
      <line x1="265" y1="28" x2="285" y2="58"/>
      <line x1="325" y1="22" x2="345" y2="52"/>
    </g>
    <!-- Reflections on glass -->
    <polygon points="60,60 100,52 130,60 90,68" fill="white" opacity="0.15"/>
    <polygon points="200,38 250,30 290,38 240,46" fill="white" opacity="0.1"/>
    <!-- Frame thickness -->
    <polygon points="15,55 15,62 85,92 85,85" fill="#475569" stroke="#334155" stroke-width="0.8"/>
    <polygon points="85,85 85,92 415,52 415,45" fill="#1e293b" stroke="#0f172a" stroke-width="0.8"/>
    <!-- Junction box (back of panel) -->
    <rect x="180" y="40" width="30" height="15" rx="2" fill="#1e293b" stroke="#334155" stroke-width="1"/>
  </g>

  <!-- ===== CABLES FROM PANEL ===== -->
  <path d="M 290,295 C 290,320 250,350 220,380" fill="none" stroke="#ef4444" stroke-width="3" stroke-linecap="round"/>
  <path d="M 296,295 C 296,325 256,355 226,385" fill="none" stroke="#1e293b" stroke-width="3" stroke-linecap="round"/>

  <!-- ===== CONTROLLER BOX (3D isometric, large) ===== -->
  <g filter="url(#s)" transform="translate(120, 380)">
    <!-- Box top face -->
    <polygon points="30,30 310,0 390,28 110,58" fill="url(#box_top)" stroke="#94a3b8" stroke-width="1.5"/>
    <!-- Box front face -->
    <polygon points="30,30 30,110 110,140 110,58" fill="url(#box_front)" stroke="#64748b" stroke-width="1.5"/>
    <!-- Box right face -->
    <polygon points="110,58 110,140 390,108 390,28" fill="url(#box_side)" stroke="#475569" stroke-width="1.5"/>

    <!-- Label engraved on top -->
    <polygon points="80,32 260,12 320,28 140,48" fill="none" stroke="white" stroke-width="0.5" opacity="0.3"/>

    <!-- Ventilation grille (right face) -->
    <g stroke="#334155" stroke-width="0.8" opacity="0.4">
      <line x1="340" y1="40" x2="340" y2="100"/>
      <line x1="350" y1="38" x2="350" y2="98"/>
      <line x1="360" y1="36" x2="360" y2="96"/>
      <line x1="370" y1="34" x2="370" y2="94"/>
    </g>

    <!-- LEDs on front face (glowing) -->
    <circle cx="50" cy="60" r="6" fill="#22c55e" opacity="0.3" filter="url(#gl)"/>
    <circle cx="50" cy="60" r="4" fill="#22c55e" stroke="#15803d" stroke-width="1"/>
    <circle cx="50" cy="60" r="1.5" fill="#4ade80"/>

    <circle cx="65" cy="57" r="6" fill="#f59e0b" opacity="0.2"/>
    <circle cx="65" cy="57" r="4" fill="#f59e0b" stroke="#d97706" stroke-width="1" opacity="0.5"/>

    <circle cx="80" cy="54" r="6" fill="#ef4444" opacity="0.15"/>
    <circle cx="80" cy="54" r="4" fill="#ef4444" stroke="#dc2626" stroke-width="1" opacity="0.4"/>

    <!-- Cable glands (front face) -->
    <ellipse cx="50" cy="95" rx="6" ry="5" fill="#475569" stroke="#334155" stroke-width="1.2"/>
    <ellipse cx="50" cy="95" rx="3" ry="2.5" fill="#1e293b"/>
    <ellipse cx="75" cy="102" rx="6" ry="5" fill="#475569" stroke="#334155" stroke-width="1.2"/>
    <ellipse cx="75" cy="102" rx="3" ry="2.5" fill="#1e293b"/>
    <ellipse cx="100" cy="109" rx="6" ry="5" fill="#475569" stroke="#334155" stroke-width="1.2"/>
    <ellipse cx="100" cy="109" rx="3" ry="2.5" fill="#1e293b"/>

    <!-- Cable glands right side (load outputs) -->
    <ellipse cx="390" cy="55" rx="5" ry="6" fill="#475569" stroke="#334155" stroke-width="1"/>
    <ellipse cx="390" cy="75" rx="5" ry="6" fill="#475569" stroke="#334155" stroke-width="1"/>
    <ellipse cx="390" cy="95" rx="5" ry="6" fill="#475569" stroke="#334155" stroke-width="1"/>

    <!-- Screw heads on top (4 corners) -->
    <circle cx="55" cy="38" r="2.5" fill="#94a3b8" stroke="#64748b" stroke-width="0.8"/>
    <line x1="53" y1="38" x2="57" y2="38" stroke="#64748b" stroke-width="0.6"/>
    <circle cx="285" cy="14" r="2.5" fill="#94a3b8" stroke="#64748b" stroke-width="0.8"/>
    <line x1="283" y1="14" x2="287" y2="14" stroke="#64748b" stroke-width="0.6"/>
    <circle cx="135" cy="52" r="2.5" fill="#94a3b8" stroke="#64748b" stroke-width="0.8"/>
    <circle cx="365" cy="30" r="2.5" fill="#94a3b8" stroke="#64748b" stroke-width="0.8"/>

    <!-- PCB visible through transparent seam -->
    <line x1="55" y1="58" x2="105" y2="138" stroke="#22c55e" stroke-width="0.5" opacity="0.2" stroke-dasharray="2,3"/>

    <!-- Reset button (recessed) -->
    <circle cx="95" cy="72" r="3" fill="#64748b" stroke="#475569" stroke-width="1"/>
    <circle cx="95" cy="72" r="1.5" fill="#94a3b8"/>

    <!-- Product label sticker on front -->
    <polygon points="40,68 90,60 90,82 40,90" fill="white" opacity="0.7" rx="1"/>
    <line x1="45" y1="72" x2="85" y2="64" stroke="#334155" stroke-width="0.5" opacity="0.5"/>
    <line x1="45" y1="76" x2="85" y2="68" stroke="#334155" stroke-width="0.5" opacity="0.5"/>
    <line x1="45" y1="80" x2="75" y2="74" stroke="#334155" stroke-width="0.5" opacity="0.3"/>
  </g>

  <!-- ===== CABLES FROM CONTROLLER TO LOADS ===== -->
  <!-- Cable to light bulb -->
  <path d="M 515,440 C 550,440 600,420 660,400" fill="none" stroke="#fbbf24" stroke-width="3" stroke-linecap="round"/>
  <path d="M 515,445 C 550,445 600,425 660,405" fill="none" stroke="#1e293b" stroke-width="2" stroke-linecap="round"/>
  <!-- Cable to phone charger -->
  <path d="M 515,460 C 560,465 620,475 700,490" fill="none" stroke="#3b82f6" stroke-width="2.5" stroke-linecap="round"/>
  <path d="M 515,464 C 560,469 620,479 700,494" fill="none" stroke="#1e293b" stroke-width="1.8" stroke-linecap="round"/>
  <!-- Cable to radio -->
  <path d="M 515,478 C 570,495 640,540 720,570" fill="none" stroke="#ec4899" stroke-width="2.5" stroke-linecap="round"/>
  <path d="M 515,482 C 570,499 640,544 720,574" fill="none" stroke="#1e293b" stroke-width="1.8" stroke-linecap="round"/>

  <!-- Cable to battery -->
  <path d="M 220,520 C 220,560 200,590 180,620" fill="none" stroke="#22c55e" stroke-width="3" stroke-linecap="round"/>
  <path d="M 226,520 C 226,560 206,590 186,620" fill="none" stroke="#1e293b" stroke-width="3" stroke-linecap="round"/>

  <!-- UART cable to LCD -->
  <path d="M 400,510 C 420,550 440,580 460,600" fill="none" stroke="#8b5cf6" stroke-width="2" stroke-linecap="round" stroke-dasharray="6,3"/>

  <!-- ===== BATTERY (3D isometric) ===== -->
  <g filter="url(#s)" transform="translate(80, 620)">
    <!-- Battery body -->
    <polygon points="20,20 200,10 240,30 60,40" fill="url(#bat_top)" stroke="#15803d" stroke-width="1.5"/>
    <polygon points="20,20 20,80 60,100 60,40" fill="url(#bat_side)" stroke="#14532d" stroke-width="1"/>
    <polygon points="60,40 60,100 240,90 240,30" fill="url(#bat_front)" stroke="#15803d" stroke-width="1"/>
    <!-- Terminals -->
    <rect x="75" y="12" width="18" height="12" rx="3" fill="#ef4444" stroke="#b91c1c" stroke-width="1.5"/>
    <rect x="80" y="8" width="8" height="4" rx="1" fill="#fca5a5"/>
    <rect x="140" y="10" width="18" height="12" rx="3" fill="#1e293b" stroke="#374151" stroke-width="1.5"/>
    <rect x="145" y="6" width="8" height="4" rx="1" fill="#6b7280"/>
    <!-- Label on battery front -->
    <rect x="90" y="52" width="120" height="30" rx="2" fill="white" opacity="0.8"/>
    <line x1="95" y1="60" x2="205" y2="60" stroke="#15803d" stroke-width="0.5" opacity="0.5"/>
    <line x1="95" y1="67" x2="205" y2="67" stroke="#15803d" stroke-width="0.5" opacity="0.5"/>
    <line x1="95" y1="74" x2="175" y2="74" stroke="#15803d" stroke-width="0.5" opacity="0.3"/>
  </g>

  <!-- ===== LIGHT BULB (LED) ===== -->
  <g filter="url(#s)" transform="translate(660, 350)">
    <!-- Glow effect -->
    <circle cx="30" cy="25" r="35" fill="url(#glow_y)"/>
    <!-- Bulb glass -->
    <ellipse cx="30" cy="20" rx="22" ry="25" fill="url(#bulb)" stroke="#d97706" stroke-width="1.5"/>
    <!-- Filament lines -->
    <path d="M 22,15 Q 30,5 38,15" fill="none" stroke="#f59e0b" stroke-width="1.5" opacity="0.6"/>
    <path d="M 25,22 Q 30,12 35,22" fill="none" stroke="#f59e0b" stroke-width="1" opacity="0.4"/>
    <!-- Base -->
    <rect x="20" y="42" width="20" height="12" rx="2" fill="#a8a29e" stroke="#78716c" stroke-width="1"/>
    <line x1="22" y1="46" x2="38" y2="46" stroke="#78716c" stroke-width="0.8"/>
    <line x1="22" y1="50" x2="38" y2="50" stroke="#78716c" stroke-width="0.8"/>
    <!-- Screw threads on base -->
    <rect x="22" y="54" width="16" height="3" rx="1" fill="#78716c"/>
  </g>

  <!-- ===== PHONE CHARGING ===== -->
  <g filter="url(#s)" transform="translate(700, 460)">
    <!-- Phone body -->
    <rect x="0" y="0" width="35" height="60" rx="5" fill="#1e293b" stroke="#334155" stroke-width="1.5"/>
    <!-- Screen -->
    <rect x="3" y="6" width="29" height="45" rx="2" fill="#0f172a"/>
    <!-- Screen content (charging icon) -->
    <rect x="12" y="15" width="11" height="22" rx="2" fill="none" stroke="#22c55e" stroke-width="1.5"/>
    <rect x="15" y="12" width="5" height="3" rx="0.5" fill="#22c55e"/>
    <!-- Battery fill animation -->
    <rect x="14" y="24" width="7" height="11" fill="#22c55e" opacity="0.7"/>
    <!-- Lightning bolt -->
    <polygon points="19,18 16,26 19,26 17,33 21,25 18,25 20,18" fill="#fbbf24"/>
    <!-- Home button -->
    <circle cx="17" cy="55" r="2.5" fill="none" stroke="#475569" stroke-width="0.8"/>
    <!-- USB cable -->
    <rect x="13" y="60" width="9" height="5" rx="1.5" fill="#475569"/>
    <line x1="17" y1="65" x2="17" y2="75" stroke="#334155" stroke-width="2"/>
  </g>

  <!-- ===== RADIO ===== -->
  <g filter="url(#s)" transform="translate(700, 555)">
    <!-- Radio body -->
    <rect x="0" y="0" width="80" height="50" rx="6" fill="#292524" stroke="#44403c" stroke-width="1.5"/>
    <!-- Speaker grille -->
    <circle cx="25" cy="25" r="16" fill="#1c1917" stroke="#44403c" stroke-width="1"/>
    <circle cx="25" cy="25" r="12" fill="none" stroke="#57534e" stroke-width="0.5"/>
    <circle cx="25" cy="25" r="8" fill="none" stroke="#57534e" stroke-width="0.5"/>
    <circle cx="25" cy="25" r="4" fill="none" stroke="#57534e" stroke-width="0.5"/>
    <!-- Speaker dots -->
    <g fill="#57534e" opacity="0.4">
      <circle cx="18" cy="18" r="0.8"/><circle cx="22" cy="16" r="0.8"/><circle cx="28" cy="16" r="0.8"/>
      <circle cx="32" cy="18" r="0.8"/><circle cx="34" cy="22" r="0.8"/><circle cx="34" cy="28" r="0.8"/>
      <circle cx="32" cy="32" r="0.8"/><circle cx="28" cy="34" r="0.8"/><circle cx="22" cy="34" r="0.8"/>
      <circle cx="18" cy="32" r="0.8"/><circle cx="16" cy="28" r="0.8"/><circle cx="16" cy="22" r="0.8"/>
    </g>
    <!-- Tuning dial -->
    <rect x="52" y="8" width="22" height="12" rx="2" fill="#1c1917" stroke="#44403c" stroke-width="0.8"/>
    <line x1="55" y1="14" x2="71" y2="14" stroke="#78716c" stroke-width="0.5"/>
    <circle cx="60" cy="14" r="1" fill="#ef4444"/>
    <!-- Volume knob -->
    <circle cx="60" cy="35" r="6" fill="#44403c" stroke="#57534e" stroke-width="1"/>
    <circle cx="60" cy="35" r="2" fill="#78716c"/>
    <line x1="60" y1="29" x2="60" y2="33" stroke="#a8a29e" stroke-width="1"/>
    <!-- Antenna -->
    <line x1="70" y1="0" x2="85" y2="-40" stroke="#78716c" stroke-width="1.5" stroke-linecap="round"/>
    <circle cx="85" cy="-40" r="2" fill="#a8a29e"/>
    <!-- Power LED -->
    <circle cx="52" cy="42" r="1.5" fill="#22c55e"/>
  </g>

  <!-- ===== LCD DISPLAY ===== -->
  <g filter="url(#s)" transform="translate(430, 590)">
    <!-- LCD module body -->
    <rect x="0" y="0" width="120" height="55" rx="4" fill="#0e7490" stroke="#0891b2" stroke-width="1.5"/>
    <!-- Screen area -->
    <rect x="8" y="8" width="90" height="38" rx="2" fill="#0f172a" stroke="#1e293b" stroke-width="1"/>
    <!-- Pixel grid hint -->
    <g opacity="0.1">
      <line x1="8" y1="27" x2="98" y2="27" stroke="#22d3ee" stroke-width="0.3"/>
    </g>
    <!-- Backlight glow -->
    <rect x="10" y="10" width="86" height="34" rx="1" fill="#22c55e" opacity="0.08"/>
    <!-- Mounting holes -->
    <circle cx="5" cy="5" r="2" fill="#0d5016"/><circle cx="115" cy="5" r="2" fill="#0d5016"/>
    <circle cx="5" cy="50" r="2" fill="#0d5016"/><circle cx="115" cy="50" r="2" fill="#0d5016"/>
    <!-- I2C connector pins -->
    <rect x="100" y="15" width="15" height="25" rx="1" fill="#1e293b" stroke="#334155" stroke-width="0.5"/>
    <circle cx="107" cy="22" r="1.2" fill="#b87333"/><circle cx="107" cy="28" r="1.2" fill="#b87333"/>
    <circle cx="107" cy="34" r="1.2" fill="#b87333"/>
  </g>

  <!-- ===== WALL MOUNT BRACKET HINT ===== -->
  <!-- Wall silhouette behind controller -->
  <rect x="100" y="340" width="450" height="300" rx="4" fill="#e2e8f0" opacity="0.15"/>

  <!-- ===== GROUND SHADOW ===== -->
  <ellipse cx="350" cy="770" rx="350" ry="25" fill="#1e293b" opacity="0.08"/>

  <!-- ===== DIMENSION LINES ===== -->
  <!-- Panel width -->
  <line x1="95" y1="310" x2="490" y2="310" stroke="#dc2626" stroke-width="0.8" opacity="0.6"/>
  <line x1="95" y1="307" x2="95" y2="313" stroke="#dc2626" stroke-width="0.8" opacity="0.6"/>
  <line x1="490" y1="307" x2="490" y2="313" stroke="#dc2626" stroke-width="0.8" opacity="0.6"/>
  <rect x="260" y="303" width="62" height="12" rx="2" fill="white" opacity="0.8"/>
  <text x="291" y="312" text-anchor="middle" fill="#dc2626" font-size="8" font-weight="bold">540 mm</text>

  <!-- Box dimensions -->
  <line x1="530" y1="415" x2="530" y2="520" stroke="#dc2626" stroke-width="0.8" opacity="0.6"/>
  <line x1="527" y1="415" x2="533" y2="415" stroke="#dc2626" stroke-width="0.8" opacity="0.6"/>
  <line x1="527" y1="520" x2="533" y2="520" stroke="#dc2626" stroke-width="0.8" opacity="0.6"/>
  <rect x="533" y="460" width="50" height="12" rx="2" fill="white" opacity="0.8"/>
  <text x="558" y="469" text-anchor="middle" fill="#dc2626" font-size="7" font-weight="bold">80 mm</text>

  <!-- Controller box top dimension -->
  <line x1="150" y1="375" x2="510" y2="375" stroke="#2563eb" stroke-width="0.7" opacity="0.5"/>
  <rect x="300" y="368" width="60" height="12" rx="2" fill="white" opacity="0.8"/>
  <text x="330" y="377" text-anchor="middle" fill="#2563eb" font-size="7" font-weight="bold">120 mm</text>

  <!-- Footer bar -->
  <rect y="810" width="1100" height="40" fill="#0f172a" opacity="0.9" rx="0"/>
  <text x="550" y="828" text-anchor="middle" fill="#94a3b8" font-size="9">TSAKITSAKY ENERGY v1.0 | Panneau 12V/50W + Controleur Cortex-M0 + Batterie 12V/100Ah | 3 charges par priorite</text>
  <text x="550" y="842" text-anchor="middle" fill="#64748b" font-size="7">(c) 2026 Santatriniaina RAZAFINDRAKOTO | Boitier ABS IP54 120x80x40mm | Cout: $20.78 | Prix: $49.90</text>
</svg>
