<svg xmlns="http://www.w3.org/2000/svg" viewBox="0 0 1050 900" font-family="Segoe UI, Arial, sans-serif">
  <defs>
    <filter id="s"><feDropShadow dx="2" dy="2" stdDeviation="3" flood-opacity="0.12"/></filter>
    <filter id="glow"><feGaussianBlur stdDeviation="2" result="b"/><feMerge><feMergeNode in="b"/><feMergeNode in="SourceGraphic"/></feMerge></filter>
    <radialGradient id="sea" cx="50%" cy="50%"><stop offset="0%" stop-color="#bfdbfe"/><stop offset="100%" stop-color="#93c5fd"/></radialGradient>
    <linearGradient id="land" x1="0%" y1="0%" x2="100%" y2="100%"><stop offset="0%" stop-color="#86efac"/><stop offset="40%" stop-color="#4ade80"/><stop offset="70%" stop-color="#22c55e"/><stop offset="100%" stop-color="#16a34a"/></linearGradient>
    <linearGradient id="highland" x1="0%" y1="0%" x2="0%" y2="100%"><stop offset="0%" stop-color="#a3e635"/><stop offset="100%" stop-color="#65a30d"/></linearGradient>
  </defs>

  <!-- Background -->
  <rect width="1050" height="900" rx="12" fill="#f0f9ff"/>

  <!-- Header -->
  <rect width="1050" height="52" rx="12" fill="#0f172a"/>
  <rect y="40" width="1050" height="12" fill="#0f172a"/>
  <text x="525" y="34" text-anchor="middle" fill="white" font-size="18" font-weight="bold">Stratégie de Déploiement — TSAKITSAKY ENERGY — Carte de Madagascar</text>

  <!-- Ocean background -->
  <rect x="20" y="65" width="530" height="780" rx="10" fill="url(#sea)" stroke="#60a5fa" stroke-width="1"/>
  <text x="80" y="95" fill="#3b82f6" font-size="11" font-style="italic">Canal du Mozambique</text>
  <text x="400" y="810" fill="#3b82f6" font-size="11" font-style="italic">Océan Indien</text>

  <!-- ================================================================
       MADAGASCAR — Contour geographique realiste
       Base sur les coordonnees GPS reelles converties en pixels
       Projection : Lat -12° a -25.5° → Y:100-760
                    Lon 43° a 50.5° → X:60-460
       Echelle : ~53 px/degre lat, ~53 px/degre lon
       ================================================================ -->
  <g filter="url(#s)">
    <!-- Contour principal de Madagascar -->
    <path d="
      M 310,100
      C 325,98 340,100 355,105
      C 365,108 378,112 388,118
      L 400,125
      C 410,130 418,138 422,148
      L 428,160
      C 432,170 435,182 436,195
      L 438,210
      C 440,225 442,240 440,255
      C 438,268 434,280 430,292
      L 425,305
      C 420,318 416,330 415,345
      C 414,358 415,372 418,385
      L 422,400
      C 425,412 426,425 425,438
      C 424,450 420,462 416,475
      L 410,490
      C 405,502 400,515 396,528
      C 392,540 388,553 382,565
      L 375,578
      C 368,588 360,598 350,606
      L 338,618
      C 328,625 318,632 306,638
      L 290,648
      C 278,654 266,658 252,660
      L 235,662
      C 222,663 210,662 198,658
      L 185,652
      C 175,648 168,640 162,632
      L 155,618
      C 148,605 142,590 138,575
      L 132,555
      C 128,538 125,520 124,502
      L 122,480
      C 120,460 118,440 118,420
      L 118,400
      C 118,380 120,360 122,340
      L 126,318
      C 130,298 135,278 140,260
      L 148,240
      C 155,222 162,205 170,190
      L 180,175
      C 188,162 196,150 205,140
      L 218,128
      C 228,120 240,114 252,110
      L 268,106
      C 280,103 292,101 310,100
      Z
    " fill="url(#land)" stroke="#15803d" stroke-width="2.5"/>

    <!-- Hauts plateaux (relief central) -->
    <path d="
      M 240,200
      C 260,195 280,192 295,195
      C 310,198 320,205 325,218
      C 330,235 328,255 322,275
      C 316,295 308,315 300,335
      C 292,355 285,375 280,395
      C 275,412 272,430 268,448
      C 264,465 258,480 250,495
      C 240,510 228,520 215,525
      C 205,528 196,520 190,508
      C 185,495 182,480 180,462
      C 178,442 180,420 184,400
      C 188,378 194,355 200,335
      C 206,315 214,295 220,275
      C 226,255 232,235 238,215
      Z
    " fill="url(#highland)" opacity="0.4" stroke="#65a30d" stroke-width="1" stroke-dasharray="3,2"/>
    <text x="255" y="360" text-anchor="middle" fill="#365314" font-size="8" font-style="italic" transform="rotate(-15,255,360)">Hauts Plateaux</text>

    <!-- Nosy Be (ile au nord-ouest) -->
    <ellipse cx="168" cy="145" rx="18" ry="12" fill="#86efac" stroke="#15803d" stroke-width="1.5" transform="rotate(-20,168,145)"/>
    <text x="168" y="132" text-anchor="middle" fill="#166534" font-size="7">Nosy Be</text>

    <!-- Sainte-Marie (ile a l'est) -->
    <ellipse cx="430" cy="260" rx="6" ry="22" fill="#86efac" stroke="#15803d" stroke-width="1" transform="rotate(15,430,260)"/>
    <text x="448" y="262" fill="#166534" font-size="6">Ste-Marie</text>

    <!-- Rivières principales (Canal des Pangalanes, Betsiboka...) -->
    <path d="M 220,230 Q 235,280 250,340 Q 260,380 258,430" fill="none" stroke="#38bdf8" stroke-width="1.5" opacity="0.5"/>
    <path d="M 200,300 Q 165,310 140,330 Q 125,340 122,360" fill="none" stroke="#38bdf8" stroke-width="1.2" opacity="0.4"/>
  </g>

  <!-- ================================================================
       VILLES ET PHASES DE DEPLOIEMENT
       Positions basees sur les coordonnees GPS reelles
       ================================================================ -->

  <!-- ===== PHASE 1 (2026) — Cercles rouges ===== -->

  <!-- Antananarivo (18.92°S, 47.52°E) -->
  <g filter="url(#glow)">
    <circle cx="275" cy="370" r="14" fill="#dc2626" stroke="white" stroke-width="2.5"/>
    <text x="275" y="374" text-anchor="middle" fill="white" font-size="9" font-weight="bold">1</text>
  </g>
  <text x="295" y="366" fill="#1e293b" font-size="10" font-weight="bold">Antananarivo</text>
  <text x="295" y="378" fill="#64748b" font-size="7">Capitale — 2.5M hab.</text>
  <rect x="293" y="382" width="65" height="12" rx="2" fill="#dc2626" opacity="0.15"/>
  <text x="295" y="392" fill="#dc2626" font-size="7" font-weight="bold">Phase 1</text>

  <!-- Antsirabe (19.87°S, 47.03°E) -->
  <g filter="url(#glow)">
    <circle cx="260" cy="420" r="11" fill="#dc2626" stroke="white" stroke-width="2"/>
    <text x="260" y="424" text-anchor="middle" fill="white" font-size="8" font-weight="bold">1</text>
  </g>
  <text x="210" y="435" fill="#1e293b" font-size="9" font-weight="bold">Antsirabe</text>
  <text x="210" y="446" fill="#64748b" font-size="7">Vakinankaratra — 1.8M</text>

  <!-- Toamasina / Tamatave (18.15°S, 49.39°E) -->
  <g filter="url(#glow)">
    <circle cx="395" cy="328" r="11" fill="#dc2626" stroke="white" stroke-width="2"/>
    <text x="395" y="332" text-anchor="middle" fill="white" font-size="8" font-weight="bold">1</text>
  </g>
  <text x="410" y="320" fill="#1e293b" font-size="9" font-weight="bold">Toamasina</text>
  <text x="410" y="331" fill="#64748b" font-size="7">Atsinanana — 1.2M</text>

  <!-- ===== PHASE 2 (2027) — Cercles oranges ===== -->

  <!-- Mahajanga (15.72°S, 46.32°E) -->
  <circle cx="195" cy="205" r="10" fill="#f59e0b" stroke="white" stroke-width="2"/>
  <text x="195" y="209" text-anchor="middle" fill="white" font-size="8" font-weight="bold">2</text>
  <text x="140" y="200" fill="#92400e" font-size="9" font-weight="bold">Mahajanga</text>
  <text x="140" y="211" fill="#a16207" font-size="7">Boeny — 0.8M</text>

  <!-- Toliara / Tulear (23.35°S, 43.68°E) -->
  <circle cx="160" cy="600" r="10" fill="#f59e0b" stroke="white" stroke-width="2"/>
  <text x="160" y="604" text-anchor="middle" fill="white" font-size="8" font-weight="bold">2</text>
  <text x="120" y="618" fill="#92400e" font-size="9" font-weight="bold">Toliara</text>
  <text x="120" y="629" fill="#a16207" font-size="7">Atsimo-Andrefana 1.5M</text>

  <!-- Nosy Be / Hell-Ville (13.28°S, 48.26°E) -->
  <circle cx="168" cy="145" r="9" fill="#f59e0b" stroke="white" stroke-width="2"/>
  <text x="168" y="149" text-anchor="middle" fill="white" font-size="7" font-weight="bold">2</text>

  <!-- Fianarantsoa (21.44°S, 47.09°E) -->
  <circle cx="262" cy="490" r="9" fill="#f59e0b" stroke="white" stroke-width="2"/>
  <text x="262" y="494" text-anchor="middle" fill="white" font-size="7" font-weight="bold">2</text>
  <text x="215" y="502" fill="#92400e" font-size="8" font-weight="bold">Fianarantsoa</text>

  <!-- Mananjary (21.22°S, 48.34°E) -->
  <circle cx="340" cy="482" r="8" fill="#f59e0b" stroke="white" stroke-width="2"/>
  <text x="340" y="486" text-anchor="middle" fill="white" font-size="7" font-weight="bold">2</text>
  <text x="355" y="485" fill="#a16207" font-size="7">Mananjary</text>

  <!-- ===== PHASE 3 (2028) — Points gris ===== -->

  <!-- Antsiranana / Diego (12.28°S, 49.29°E) -->
  <circle cx="345" cy="110" r="7" fill="#6b7280" stroke="white" stroke-width="1.5"/>
  <text x="345" y="114" text-anchor="middle" fill="white" font-size="6" font-weight="bold">3</text>
  <text x="365" y="110" fill="#4b5563" font-size="8">Antsiranana</text>

  <!-- Ambanja -->
  <circle cx="225" cy="140" r="6" fill="#6b7280" stroke="white" stroke-width="1.5"/>

  <!-- Antsiranan -->
  <circle cx="310" cy="120" r="6" fill="#6b7280" stroke="white" stroke-width="1.5"/>

  <!-- Morondava (20.28°S, 44.28°E) -->
  <circle cx="155" cy="448" r="6" fill="#6b7280" stroke="white" stroke-width="1.5"/>
  <text x="125" y="455" fill="#4b5563" font-size="7">Morondava</text>

  <!-- Fort-Dauphin / Taolagnaro (25.03°S, 46.98°E) -->
  <circle cx="280" cy="665" r="6" fill="#6b7280" stroke="white" stroke-width="1.5"/>
  <text x="295" y="670" fill="#4b5563" font-size="7">Taolagnaro</text>

  <!-- Sambava -->
  <circle cx="380" cy="150" r="6" fill="#6b7280" stroke="white" stroke-width="1.5"/>
  <text x="395" y="153" fill="#4b5563" font-size="7">Sambava</text>

  <!-- Manakara -->
  <circle cx="330" cy="530" r="6" fill="#6b7280" stroke="white" stroke-width="1.5"/>

  <!-- Farafangana -->
  <circle cx="310" cy="570" r="6" fill="#6b7280" stroke="white" stroke-width="1.5"/>

  <!-- Ihosy -->
  <circle cx="235" cy="530" r="6" fill="#6b7280" stroke="white" stroke-width="1.5"/>

  <!-- Ambatondrazaka -->
  <circle cx="340" cy="295" r="6" fill="#6b7280" stroke="white" stroke-width="1.5"/>

  <!-- Maintirano -->
  <circle cx="140" cy="290" r="6" fill="#6b7280" stroke="white" stroke-width="1.5"/>

  <!-- Ampanihy -->
  <circle cx="170" cy="640" r="6" fill="#6b7280" stroke="white" stroke-width="1.5"/>

  <!-- Compass Rose -->
  <g transform="translate(480, 110)">
    <circle r="20" fill="white" stroke="#334155" stroke-width="1" opacity="0.8"/>
    <line x1="0" y1="-18" x2="0" y2="18" stroke="#334155" stroke-width="1"/>
    <line x1="-18" y1="0" x2="18" y2="0" stroke="#334155" stroke-width="1"/>
    <polygon points="0,-16 -4,-4 4,-4" fill="#dc2626"/>
    <polygon points="0,16 -4,4 4,4" fill="#334155"/>
    <text x="0" y="-22" text-anchor="middle" fill="#dc2626" font-size="8" font-weight="bold">N</text>
    <text x="0" y="30" text-anchor="middle" fill="#334155" font-size="7">S</text>
    <text x="25" y="4" fill="#334155" font-size="7">E</text>
    <text x="-25" y="4" fill="#334155" font-size="7">O</text>
  </g>

  <!-- Scale bar -->
  <g transform="translate(380, 730)">
    <line x1="0" y1="0" x2="100" y2="0" stroke="#334155" stroke-width="2"/>
    <line x1="0" y1="-4" x2="0" y2="4" stroke="#334155" stroke-width="1.5"/>
    <line x1="50" y1="-3" x2="50" y2="3" stroke="#334155" stroke-width="1"/>
    <line x1="100" y1="-4" x2="100" y2="4" stroke="#334155" stroke-width="1.5"/>
    <text x="0" y="14" text-anchor="middle" fill="#334155" font-size="7">0</text>
    <text x="50" y="14" text-anchor="middle" fill="#334155" font-size="7">150</text>
    <text x="100" y="14" text-anchor="middle" fill="#334155" font-size="7">300 km</text>
  </g>

  <!-- Coordinates reference -->
  <text x="60" y="770" fill="#94a3b8" font-size="7">12°S</text>
  <text x="60" y="665" fill="#94a3b8" font-size="7">20°S</text>
  <text x="60" y="565" fill="#94a3b8" font-size="7">17°S</text>
  <text x="150" y="780" fill="#94a3b8" font-size="7">44°E</text>
  <text x="350" y="780" fill="#94a3b8" font-size="7">48°E</text>

  <!-- ================================================================
       LEGENDE + INFORMATIONS BUSINESS
       ================================================================ -->

  <!-- Legend box -->
  <g transform="translate(575, 75)">
    <rect width="445" height="155" rx="10" fill="white" stroke="#e2e8f0" stroke-width="1.5" filter="url(#s)"/>
    <text x="222" y="24" text-anchor="middle" fill="#0f172a" font-size="14" font-weight="bold">Légende — Phases de Déploiement</text>
    <line x1="15" y1="35" x2="430" y2="35" stroke="#e2e8f0" stroke-width="1"/>

    <circle cx="30" cy="55" r="10" fill="#dc2626" stroke="white" stroke-width="2"/>
    <text x="30" y="59" text-anchor="middle" fill="white" font-size="8" font-weight="bold">1</text>
    <text x="50" y="52" fill="#1e293b" font-size="11" font-weight="bold">Phase 1 — 2026 (3 régions)</text>
    <text x="50" y="66" fill="#64748b" font-size="9">Analamanga, Vakinankaratra, Atsinanana — 2 000 unités</text>

    <circle cx="30" cy="90" r="9" fill="#f59e0b" stroke="white" stroke-width="2"/>
    <text x="30" y="94" text-anchor="middle" fill="white" font-size="8" font-weight="bold">2</text>
    <text x="50" y="87" fill="#1e293b" font-size="11" font-weight="bold">Phase 2 — 2027 (+6 régions)</text>
    <text x="50" y="101" fill="#64748b" font-size="9">Boeny, Atsimo-Andref., DIANA, Haute Matsiatra — 10 000 unités</text>

    <circle cx="30" cy="125" r="7" fill="#6b7280" stroke="white" stroke-width="1.5"/>
    <text x="30" y="129" text-anchor="middle" fill="white" font-size="7" font-weight="bold">3</text>
    <text x="50" y="122" fill="#1e293b" font-size="11" font-weight="bold">Phase 3 — 2028 (22 régions)</text>
    <text x="50" y="136" fill="#64748b" font-size="9">Couverture nationale Madagascar — 30 000 unités</text>

    <rect x="280" y="42" width="150" height="22" rx="4" fill="#f0fdf4" stroke="#22c55e" stroke-width="1"/>
    <text x="355" y="57" text-anchor="middle" fill="#166534" font-size="9" font-weight="bold">Ensoleillement: 2800 h/an</text>
  </g>

  <!-- KPI Cards -->
  <g transform="translate(575, 250)">
    <text x="222" y="0" text-anchor="middle" fill="#0f172a" font-size="14" font-weight="bold">Indicateurs Clés de Performance</text>

    <rect x="0" y="15" width="105" height="80" rx="8" fill="white" stroke="#e2e8f0" stroke-width="1.5" filter="url(#s)"/>
    <text x="52" y="38" text-anchor="middle" fill="#64748b" font-size="9">Foyers Année 5</text>
    <text x="52" y="65" text-anchor="middle" fill="#dc2626" font-size="24" font-weight="bold">100K</text>
    <text x="52" y="82" text-anchor="middle" fill="#94a3b8" font-size="8">ménages éclairés</text>

    <rect x="115" y="15" width="105" height="80" rx="8" fill="white" stroke="#e2e8f0" stroke-width="1.5" filter="url(#s)"/>
    <text x="167" y="38" text-anchor="middle" fill="#64748b" font-size="9">Emplois Créés</text>
    <text x="167" y="65" text-anchor="middle" fill="#f59e0b" font-size="24" font-weight="bold">650</text>
    <text x="167" y="82" text-anchor="middle" fill="#94a3b8" font-size="8">direct + indirect</text>

    <rect x="230" y="15" width="105" height="80" rx="8" fill="white" stroke="#e2e8f0" stroke-width="1.5" filter="url(#s)"/>
    <text x="282" y="38" text-anchor="middle" fill="#64748b" font-size="9">CO₂ Évité/an</text>
    <text x="282" y="65" text-anchor="middle" fill="#22c55e" font-size="24" font-weight="bold">2 Kt</text>
    <text x="282" y="82" text-anchor="middle" fill="#94a3b8" font-size="8">vs kérosène</text>

    <rect x="345" y="15" width="100" height="80" rx="8" fill="white" stroke="#e2e8f0" stroke-width="1.5" filter="url(#s)"/>
    <text x="395" y="38" text-anchor="middle" fill="#64748b" font-size="9">CA Année 5</text>
    <text x="395" y="65" text-anchor="middle" fill="#2563eb" font-size="24" font-weight="bold">$4.5M</text>
    <text x="395" y="82" text-anchor="middle" fill="#94a3b8" font-size="8">marge nette 40%</text>
  </g>

  <!-- Roadmap -->
  <g transform="translate(575, 365)">
    <text x="222" y="0" text-anchor="middle" fill="#0f172a" font-size="14" font-weight="bold">Roadmap Produit</text>

    <!-- Timeline -->
    <rect x="0" y="20" width="445" height="6" rx="3" fill="#e2e8f0"/>
    <rect x="0" y="20" width="110" height="6" rx="3" fill="#dc2626"/>
    <rect x="110" y="20" width="112" height="6" rx="3" fill="#f59e0b"/>
    <rect x="222" y="20" width="112" height="6" rx="3" fill="#22c55e"/>
    <rect x="334" y="20" width="111" height="6" rx="3" fill="#2563eb"/>

    <circle cx="0" cy="23" r="6" fill="#dc2626" stroke="white" stroke-width="2"/>
    <circle cx="110" cy="23" r="6" fill="#f59e0b" stroke="white" stroke-width="2"/>
    <circle cx="222" cy="23" r="6" fill="#22c55e" stroke="white" stroke-width="2"/>
    <circle cx="334" cy="23" r="6" fill="#2563eb" stroke="white" stroke-width="2"/>
    <circle cx="445" cy="23" r="6" fill="#8b5cf6" stroke="white" stroke-width="2"/>

    <text x="0" y="43" text-anchor="middle" fill="#dc2626" font-size="8" font-weight="bold">Q1 2026</text>
    <text x="110" y="43" text-anchor="middle" fill="#f59e0b" font-size="8" font-weight="bold">Q3 2026</text>
    <text x="222" y="43" text-anchor="middle" fill="#22c55e" font-size="8" font-weight="bold">2027</text>
    <text x="334" y="43" text-anchor="middle" fill="#2563eb" font-size="8" font-weight="bold">2028</text>
    <text x="445" y="43" text-anchor="middle" fill="#8b5cf6" font-size="8" font-weight="bold">2030</text>

    <!-- Phase details -->
    <rect x="0" y="52" width="100" height="70" rx="6" fill="#fef2f2" stroke="#dc2626" stroke-width="1"/>
    <text x="50" y="68" text-anchor="middle" fill="#991b1b" font-size="9" font-weight="bold">v1.0 PROTO</text>
    <text x="8" y="82" fill="#7f1d1d" font-size="7.5">20 prototypes</text>
    <text x="8" y="95" fill="#7f1d1d" font-size="7.5">5 sites pilotes</text>
    <text x="8" y="108" fill="#7f1d1d" font-size="7.5">Validation terrain</text>
    <text x="8" y="118" fill="#dc2626" font-size="7" font-weight="bold">$5K</text>

    <rect x="115" y="52" width="100" height="70" rx="6" fill="#fffbeb" stroke="#f59e0b" stroke-width="1"/>
    <text x="165" y="68" text-anchor="middle" fill="#92400e" font-size="9" font-weight="bold">v1.1 LAUNCH</text>
    <text x="123" y="82" fill="#78350f" font-size="7.5">500 unités prod.</text>
    <text x="123" y="95" fill="#78350f" font-size="7.5">20 techniciens</text>
    <text x="123" y="108" fill="#78350f" font-size="7.5">3 régions</text>
    <text x="123" y="118" fill="#f59e0b" font-size="7" font-weight="bold">$50K</text>

    <rect x="230" y="52" width="100" height="70" rx="6" fill="#f0fdf4" stroke="#22c55e" stroke-width="1"/>
    <text x="280" y="68" text-anchor="middle" fill="#166534" font-size="9" font-weight="bold">v2.0 GSM</text>
    <text x="238" y="82" fill="#14532d" font-size="7.5">Module SIM800L</text>
    <text x="238" y="95" fill="#14532d" font-size="7.5">SMS alertes</text>
    <text x="238" y="108" fill="#14532d" font-size="7.5">22 régions</text>
    <text x="238" y="118" fill="#22c55e" font-size="7" font-weight="bold">CA: $1.5M</text>

    <rect x="345" y="52" width="100" height="70" rx="6" fill="#eff6ff" stroke="#2563eb" stroke-width="1"/>
    <text x="395" y="68" text-anchor="middle" fill="#1e40af" font-size="9" font-weight="bold">v3.0 CLOUD</text>
    <text x="353" y="82" fill="#1e3a5f" font-size="7.5">Dashboard web</text>
    <text x="353" y="95" fill="#1e3a5f" font-size="7.5">Analytics / AI</text>
    <text x="353" y="108" fill="#1e3a5f" font-size="7.5">Océan Indien</text>
    <text x="353" y="118" fill="#2563eb" font-size="7" font-weight="bold">CA: $4.5M</text>
  </g>

  <!-- Market context -->
  <g transform="translate(575, 520)">
    <rect width="445" height="120" rx="8" fill="white" stroke="#e2e8f0" stroke-width="1" filter="url(#s)"/>
    <text x="222" y="22" text-anchor="middle" fill="#0f172a" font-size="12" font-weight="bold">Contexte Énergétique Madagascar</text>
    <line x1="15" y1="32" x2="430" y2="32" stroke="#e2e8f0" stroke-width="1"/>

    <!-- Bar chart: electrification -->
    <text x="20" y="52" fill="#334155" font-size="9">Taux électrification rural</text>
    <rect x="200" y="42" width="40" height="14" rx="2" fill="#dc2626"/>
    <text x="245" y="53" fill="#dc2626" font-size="9" font-weight="bold">15%</text>

    <text x="20" y="72" fill="#334155" font-size="9">Taux électrification urbain</text>
    <rect x="200" y="62" width="180" height="14" rx="2" fill="#f59e0b"/>
    <text x="385" y="73" fill="#f59e0b" font-size="9" font-weight="bold">67%</text>

    <text x="20" y="92" fill="#334155" font-size="9">Coupures JIRAMA moy.</text>
    <rect x="200" y="82" width="130" height="14" rx="2" fill="#ef4444" opacity="0.7"/>
    <text x="335" y="93" fill="#ef4444" font-size="9" font-weight="bold">4-12h/jour</text>

    <text x="20" y="112" fill="#334155" font-size="9">Ensoleillement annuel</text>
    <rect x="200" y="102" width="280" height="14" rx="2" fill="#fbbf24"/>
    <text x="420" y="113" fill="#92400e" font-size="9" font-weight="bold">2800h ☀</text>
  </g>

  <!-- Partenaires -->
  <g transform="translate(575, 660)">
    <rect width="445" height="80" rx="8" fill="#1e293b" filter="url(#s)"/>
    <text x="222" y="20" text-anchor="middle" fill="white" font-size="11" font-weight="bold">Partenaires Stratégiques</text>
    <g fill="#94a3b8" font-size="9">
      <text x="20" y="40">ADER (Agence Dév. Électrif. Rurale)</text>
      <text x="20" y="55">GIZ EnDev Madagascar — Financement</text>
      <text x="20" y="70">WWF Madagascar — Déploiement village</text>
      <text x="260" y="40">Orange Money — Pay-as-you-go</text>
      <text x="260" y="55">INSCAE — R&amp;D / Stagiaires</text>
      <text x="260" y="70">Miarakap / Oikocredit — Investisseurs</text>
    </g>
  </g>

  <!-- Footer -->
  <rect y="855" width="1050" height="45" fill="#0f172a"/>
  <text x="525" y="875" text-anchor="middle" fill="#94a3b8" font-size="9">TSAKITSAKY ENERGY — "Ny herin'ny masoandro ho an'ny rehetra" — La puissance du soleil pour tous</text>
  <text x="525" y="892" text-anchor="middle" fill="#64748b" font-size="8">(c) 2026 Santatriniaina RAZAFINDRAKOTO | ARM Cortex-M0 | Coût: $20.78 → Prix: $49.90 | Marge: 58%</text>
</svg>
